<svg width="24" height="24" viewBox="0 0 24 24" fill="none" xmlns="http://www.w3.org/2000/svg">
<path d="M7.41699 6V2C7.41699 1.67783 7.67783 1.41699 8 1.41699C8.32217 1.41699 8.58301 1.67783 8.58301 2V6C8.58301 6.32217 8.32217 6.58301 8 6.58301C7.67783 6.58301 7.41699 6.32217 7.41699 6Z" fill="#6A7282"/>
<path d="M15.417 6V2C15.417 1.67783 15.6778 1.41699 16 1.41699C16.3222 1.41699 16.583 1.67783 16.583 2V6C16.583 6.32217 16.3222 6.58301 16 6.58301C15.6778 6.58301 15.417 6.32217 15.417 6Z" fill="#6A7282"/>
<path d="M20.417 6C20.417 5.2176 19.7824 4.58301 19 4.58301H5C4.2176 4.58301 3.58301 5.2176 3.58301 6V20C3.58301 20.7824 4.2176 21.417 5 21.417H19C19.7824 21.417 20.417 20.7824 20.417 20V6ZM21.583 20C21.583 21.4267 20.4267 22.583 19 22.583H5C3.57326 22.583 2.41699 21.4267 2.41699 20V6C2.41699 4.57326 3.57326 3.41699 5 3.41699H19C20.4267 3.41699 21.583 4.57326 21.583 6V20Z" fill="#6A7282"/>
<path d="M21 9.41699C21.3222 9.41699 21.583 9.67783 21.583 10C21.583 10.3222 21.3222 10.583 21 10.583H3C2.67783 10.583 2.41699 10.3222 2.41699 10C2.41699 9.67783 2.67783 9.41699 3 9.41699H21Z" fill="#6A7282"/>
</svg>
