<svg width="24" height="24" viewBox="0 0 24 24" fill="none" xmlns="http://www.w3.org/2000/svg">
<path d="M1.99878 18.9919V4.9978C1.99882 4.20254 2.31534 3.44003 2.87769 2.87769C3.44003 2.31534 4.20254 1.99882 4.9978 1.99878H17.3367C17.8887 1.99878 18.3367 2.44672 18.3367 2.99878C18.3367 3.55083 17.8887 3.99878 17.3367 3.99878H4.9978C4.73275 3.99882 4.4782 4.10335 4.29077 4.29077C4.10335 4.4782 3.99882 4.73275 3.99878 4.9978V18.9919C3.99878 19.257 4.10341 19.5115 4.29077 19.699C4.4782 19.8864 4.73275 19.9919 4.9978 19.9919H18.9919C19.257 19.9919 19.5115 19.8864 19.699 19.699C19.8864 19.5115 19.9919 19.257 19.9919 18.9919V10.6511C19.9922 10.0994 20.4392 9.65227 20.991 9.6521C21.5429 9.6521 21.9907 10.0993 21.991 10.6511V18.9919C21.991 19.7873 21.6754 20.5507 21.113 21.113C20.5507 21.6754 19.7873 21.991 18.9919 21.991H4.9978C4.20269 21.9909 3.43999 21.6752 2.87769 21.113C2.31531 20.5507 1.99878 19.7873 1.99878 18.9919Z" fill="#6A7282"/>
<path d="M21.2843 3.29131C21.6747 2.90128 22.3071 2.90126 22.6974 3.29131C23.0878 3.68167 23.0878 4.31501 22.6974 4.70537L12.7013 14.7015C12.311 15.0913 11.6785 15.0914 11.2883 14.7015L8.28923 11.7024C7.89887 11.3121 7.89887 10.6787 8.28923 10.2884C8.67959 9.89803 9.31293 9.89803 9.70329 10.2884L11.9943 12.5804L21.2843 3.29131Z" fill="#6A7282"/>
</svg>
