<svg width="24" height="24" viewBox="0 0 24 24" fill="none" xmlns="http://www.w3.org/2000/svg">
<path d="M10.995 21.9911V18.9921C10.995 18.44 11.4429 17.9921 11.995 17.9921C12.547 17.9921 12.995 18.44 12.995 18.9921V21.9911C12.9948 22.543 12.547 22.9901 11.995 22.9901C11.443 22.9901 10.9951 22.543 10.995 21.9911Z" fill="#6A7282"/>
<path d="M3.99792 11.9949V9.99585C3.99792 9.44379 4.44587 8.99585 4.99792 8.99585C5.54998 8.99585 5.99792 9.44379 5.99792 9.99585V11.9949C5.99792 13.5855 6.62908 15.1113 7.75378 16.2361C8.87853 17.3608 10.4044 17.9929 11.995 17.9929C13.5856 17.9929 15.1115 17.3608 16.2362 16.2361C17.3609 15.1113 17.9921 13.5855 17.9921 11.9949V9.99585C17.9921 9.4438 18.44 8.99587 18.9921 8.99585C19.5441 8.99585 19.9921 9.44379 19.9921 9.99585V11.9949C19.9921 14.1157 19.1489 16.1495 17.6493 17.6492C16.1496 19.1488 14.1158 19.9919 11.995 19.9919C9.87415 19.9919 7.84036 19.1488 6.3407 17.6492C4.84108 16.1495 3.99792 14.1157 3.99792 11.9949Z" fill="#6A7282"/>
<path d="M13.9943 4.99817C13.9943 3.89415 13.0992 2.99929 11.9952 2.99915C10.8911 2.99915 9.99622 3.89406 9.99622 4.99817V11.9952C9.99636 13.0992 10.8912 13.9943 11.9952 13.9943C13.0991 13.9941 13.9941 13.0991 13.9943 11.9952V4.99817ZM15.9933 11.9952C15.9931 14.2032 14.2032 15.9931 11.9952 15.9933C9.78711 15.9933 7.99636 14.2033 7.99622 11.9952V4.99817C7.99622 2.78995 9.78702 0.999146 11.9952 0.999146C14.2033 0.999293 15.9933 2.79004 15.9933 4.99817V11.9952Z" fill="#6A7282"/>
</svg>
